<svg xmlns="http://www.w3.org/2000/svg" viewBox="0 0 1600 504" width="1600" height="504">
<rect width="100%" height="100%" rx="64" fill="#0A0A0A"/>
<svg x="210.4" y="52.0" width="400" height="400" viewBox="0 0 400 400" overflow="visible"><defs><linearGradient id="gd2l37" x1="0" y1="1" x2="1" y2="0"><stop offset="0" stop-color="#FFFFFF" stop-opacity="0"></stop><stop offset=".5" stop-color="#FFFFFF" stop-opacity=".45"></stop><stop offset="1" stop-color="#FFFFFF" stop-opacity="1"></stop></linearGradient></defs><g><rect x="136.75" y="94.83" width="4.08" height="4.08" rx="0.74" fill="#FFFFFF" opacity="0.49"></rect><rect x="295.30" y="127.88" width="4.09" height="4.09" rx="0.74" fill="#FFFFFF" opacity="0.49"></rect><rect x="317.29" y="185.88" width="4.09" height="4.09" rx="0.74" fill="#FFFFFF" opacity="0.49"></rect><rect x="312.91" y="232.21" width="4.10" height="4.10" rx="0.74" fill="#FFFFFF" opacity="0.49"></rect><rect x="310.06" y="155.25" width="4.10" height="4.10" rx="0.74" fill="#FFFFFF" opacity="0.49"></rect><rect x="82.91" y="232.00" width="4.10" height="4.10" rx="0.74" fill="#FFFFFF" opacity="0.49"></rect><rect x="258.35" y="94.29" width="4.10" height="4.10" rx="0.74" fill="#FFFFFF" opacity="0.49"></rect><rect x="165.65" y="313.50" width="4.11" height="4.11" rx="0.74" fill="#FFFFFF" opacity="0.49"></rect><rect x="79.39" y="216.43" width="4.11" height="4.11" rx="0.74" fill="#FFFFFF" opacity="0.49"></rect><rect x="251.05" y="305.54" width="4.12" height="4.12" rx="0.74" fill="#FFFFFF" opacity="0.50"></rect><rect x="213.59" y="78.96" width="4.13" height="4.13" rx="0.74" fill="#FFFFFF" opacity="0.50"></rect><rect x="307.87" y="246.03" width="4.13" height="4.13" rx="0.74" fill="#FFFFFF" opacity="0.50"></rect><rect x="232.02" y="312.99" width="4.13" height="4.13" rx="0.74" fill="#FFFFFF" opacity="0.50"></rect><rect x="92.80" y="140.09" width="4.13" height="4.13" rx="0.74" fill="#FFFFFF" opacity="0.50"></rect><rect x="184.18" y="78.72" width="4.14" height="4.14" rx="0.74" fill="#FFFFFF" opacity="0.50"></rect><rect x="267.32" y="295.84" width="4.14" height="4.14" rx="0.74" fill="#FFFFFF" opacity="0.50"></rect><rect x="238.69" y="85.07" width="4.14" height="4.14" rx="0.75" fill="#FFFFFF" opacity="0.50"></rect><rect x="124.74" y="102.83" width="4.15" height="4.15" rx="0.75" fill="#FFFFFF" opacity="0.50"></rect><rect x="300.83" y="259.66" width="4.15" height="4.15" rx="0.75" fill="#FFFFFF" opacity="0.50"></rect><rect x="115.03" y="284.69" width="4.15" height="4.15" rx="0.75" fill="#FFFFFF" opacity="0.50"></rect><rect x="283.34" y="113.64" width="4.16" height="4.16" rx="0.75" fill="#FFFFFF" opacity="0.50"></rect><rect x="317.90" y="199.59" width="4.16" height="4.16" rx="0.75" fill="#FFFFFF" opacity="0.51"></rect><rect x="281.04" y="284.46" width="4.16" height="4.16" rx="0.75" fill="#FFFFFF" opacity="0.51"></rect><rect x="78.75" y="183.91" width="4.16" height="4.16" rx="0.75" fill="#FFFFFF" opacity="0.51"></rect><rect x="292.03" y="272.35" width="4.16" height="4.16" rx="0.75" fill="#FFFFFF" opacity="0.51"></rect><rect x="159.03" y="84.41" width="4.17" height="4.17" rx="0.75" fill="#FFFFFF" opacity="0.51"></rect><rect x="198.93" y="77.94" width="4.17" height="4.17" rx="0.75" fill="#FFFFFF" opacity="0.51"></rect><rect x="86.50" y="153.41" width="4.17" height="4.17" rx="0.75" fill="#FFFFFF" opacity="0.51"></rect><rect x="192.20" y="317.75" width="4.17" height="4.17" rx="0.75" fill="#FFFFFF" opacity="0.51"></rect><rect x="127.01" y="294.68" width="4.18" height="4.18" rx="0.75" fill="#FFFFFF" opacity="0.51"></rect><rect x="206.54" y="317.56" width="4.18" height="4.18" rx="0.75" fill="#FFFFFF" opacity="0.51"></rect><rect x="302.09" y="138.48" width="4.19" height="4.19" rx="0.75" fill="#FFFFFF" opacity="0.51"></rect><rect x="313.94" y="167.62" width="4.20" height="4.20" rx="0.76" fill="#FFFFFF" opacity="0.51"></rect><rect x="87.28" y="244.21" width="4.20" height="4.20" rx="0.76" fill="#FFFFFF" opacity="0.51"></rect><rect x="81.93" y="167.41" width="4.20" height="4.20" rx="0.76" fill="#FFFFFF" opacity="0.52"></rect><rect x="102.96" y="124.66" width="4.21" height="4.21" rx="0.76" fill="#FFFFFF" opacity="0.52"></rect><rect x="114.00" y="112.25" width="4.21" height="4.21" rx="0.76" fill="#FFFFFF" opacity="0.52"></rect><rect x="140.54" y="303.18" width="4.21" height="4.21" rx="0.76" fill="#FFFFFF" opacity="0.52"></rect><rect x="94.13" y="257.96" width="4.21" height="4.21" rx="0.76" fill="#FFFFFF" opacity="0.52"></rect><rect x="268.36" y="100.92" width="4.21" height="4.21" rx="0.76" fill="#FFFFFF" opacity="0.52"></rect><rect x="102.76" y="270.79" width="4.22" height="4.22" rx="0.76" fill="#FFFFFF" opacity="0.52"></rect><rect x="316.72" y="213.28" width="4.23" height="4.23" rx="0.76" fill="#FFFFFF" opacity="0.52"></rect><rect x="78.08" y="197.61" width="4.23" height="4.23" rx="0.76" fill="#FFFFFF" opacity="0.52"></rect><rect x="178.59" y="316.12" width="4.23" height="4.23" rx="0.76" fill="#FFFFFF" opacity="0.52"></rect><rect x="144.87" y="90.49" width="4.24" height="4.24" rx="0.76" fill="#FFFFFF" opacity="0.53"></rect><rect x="155.58" y="309.92" width="4.24" height="4.24" rx="0.76" fill="#FFFFFF" opacity="0.53"></rect><rect x="219.69" y="315.57" width="4.25" height="4.25" rx="0.77" fill="#FFFFFF" opacity="0.53"></rect><rect x="249.77" y="90.03" width="4.26" height="4.26" rx="0.77" fill="#FFFFFF" opacity="0.53"></rect><rect x="227.18" y="81.84" width="4.26" height="4.26" rx="0.77" fill="#FFFFFF" opacity="0.53"></rect><rect x="291.19" y="123.01" width="4.27" height="4.27" rx="0.77" fill="#FFFFFF" opacity="0.53"></rect><rect x="241.50" y="309.26" width="4.27" height="4.27" rx="0.77" fill="#FFFFFF" opacity="0.53"></rect><rect x="170.85" y="81.38" width="4.28" height="4.28" rx="0.77" fill="#FFFFFF" opacity="0.53"></rect><rect x="316.19" y="180.76" width="4.28" height="4.28" rx="0.77" fill="#FFFFFF" opacity="0.53"></rect><rect x="313.77" y="227.14" width="4.28" height="4.28" rx="0.77" fill="#FFFFFF" opacity="0.53"></rect><rect x="258.12" y="301.07" width="4.28" height="4.28" rx="0.77" fill="#FFFFFF" opacity="0.54"></rect><rect x="307.44" y="150.18" width="4.29" height="4.29" rx="0.77" fill="#FFFFFF" opacity="0.54"></rect><rect x="81.95" y="226.93" width="4.29" height="4.29" rx="0.77" fill="#FFFFFF" opacity="0.54"></rect><rect x="79.19" y="211.32" width="4.30" height="4.30" rx="0.77" fill="#FFFFFF" opacity="0.54"></rect><rect x="131.98" y="98.33" width="4.31" height="4.31" rx="0.78" fill="#FFFFFF" opacity="0.54"></rect><rect x="272.35" y="291.04" width="4.31" height="4.31" rx="0.78" fill="#FFFFFF" opacity="0.54"></rect><rect x="96.34" y="135.15" width="4.31" height="4.31" rx="0.78" fill="#FFFFFF" opacity="0.54"></rect><rect x="309.07" y="240.97" width="4.31" height="4.31" rx="0.78" fill="#FFFFFF" opacity="0.54"></rect><rect x="277.32" y="109.00" width="4.33" height="4.33" rx="0.78" fill="#FFFFFF" opacity="0.55"></rect><rect x="111.33" y="279.78" width="4.33" height="4.33" rx="0.78" fill="#FFFFFF" opacity="0.55"></rect><rect x="302.61" y="254.59" width="4.33" height="4.33" rx="0.78" fill="#FFFFFF" opacity="0.55"></rect><rect x="213.69" y="79.77" width="4.33" height="4.33" rx="0.78" fill="#FFFFFF" opacity="0.55"></rect><rect x="284.45" y="279.54" width="4.34" height="4.34" rx="0.78" fill="#FFFFFF" opacity="0.55"></rect><rect x="184.54" y="79.53" width="4.34" height="4.34" rx="0.78" fill="#FFFFFF" opacity="0.55"></rect><rect x="294.44" y="267.36" width="4.34" height="4.34" rx="0.78" fill="#FFFFFF" opacity="0.55"></rect><rect x="316.79" y="194.44" width="4.35" height="4.35" rx="0.78" fill="#FFFFFF" opacity="0.55"></rect><rect x="80.36" y="178.81" width="4.35" height="4.35" rx="0.78" fill="#FFFFFF" opacity="0.55"></rect><rect x="167.56" y="312.88" width="4.35" height="4.35" rx="0.78" fill="#FFFFFF" opacity="0.55"></rect><rect x="89.62" y="148.38" width="4.35" height="4.35" rx="0.78" fill="#FFFFFF" opacity="0.55"></rect><rect x="122.45" y="289.80" width="4.36" height="4.36" rx="0.78" fill="#FFFFFF" opacity="0.55"></rect><rect x="199.15" y="78.98" width="4.36" height="4.36" rx="0.79" fill="#FFFFFF" opacity="0.56"></rect><rect x="297.75" y="133.61" width="4.37" height="4.37" rx="0.79" fill="#FFFFFF" opacity="0.56"></rect><rect x="260.01" y="96.63" width="4.37" height="4.37" rx="0.79" fill="#FFFFFF" opacity="0.56"></rect><rect x="120.47" y="107.70" width="4.37" height="4.37" rx="0.79" fill="#FFFFFF" opacity="0.56"></rect><rect x="155.48" y="86.87" width="4.37" height="4.37" rx="0.79" fill="#FFFFFF" opacity="0.56"></rect><rect x="192.52" y="316.44" width="4.37" height="4.37" rx="0.79" fill="#FFFFFF" opacity="0.56"></rect><rect x="108.22" y="119.95" width="4.38" height="4.38" rx="0.79" fill="#FFFFFF" opacity="0.56"></rect><rect x="311.14" y="162.59" width="4.38" height="4.38" rx="0.79" fill="#FFFFFF" opacity="0.56"></rect><rect x="134.92" y="298.45" width="4.38" height="4.38" rx="0.79" fill="#FFFFFF" opacity="0.56"></rect><rect x="86.58" y="239.14" width="4.38" height="4.38" rx="0.79" fill="#FFFFFF" opacity="0.56"></rect><rect x="229.86" y="312.05" width="4.38" height="4.38" rx="0.79" fill="#FFFFFF" opacity="0.56"></rect><rect x="238.77" y="86.50" width="4.38" height="4.38" rx="0.79" fill="#FFFFFF" opacity="0.56"></rect><rect x="206.53" y="316.08" width="4.39" height="4.39" rx="0.79" fill="#FFFFFF" opacity="0.56"></rect><rect x="84.63" y="162.38" width="4.39" height="4.39" rx="0.79" fill="#FFFFFF" opacity="0.56"></rect><rect x="92.86" y="252.86" width="4.39" height="4.39" rx="0.79" fill="#FFFFFF" opacity="0.56"></rect><rect x="148.63" y="305.53" width="4.40" height="4.40" rx="0.79" fill="#FFFFFF" opacity="0.56"></rect><rect x="100.84" y="265.76" width="4.40" height="4.40" rx="0.79" fill="#FFFFFF" opacity="0.57"></rect><rect x="315.62" y="208.18" width="4.41" height="4.41" rx="0.79" fill="#FFFFFF" opacity="0.57"></rect><rect x="79.70" y="192.49" width="4.42" height="4.42" rx="0.80" fill="#FFFFFF" opacity="0.57"></rect><rect x="247.73" y="304.77" width="4.43" height="4.43" rx="0.80" fill="#FFFFFF" opacity="0.57"></rect><rect x="285.09" y="118.39" width="4.43" height="4.43" rx="0.80" fill="#FFFFFF" opacity="0.57"></rect><rect x="141.46" y="94.38" width="4.45" height="4.45" rx="0.80" fill="#FFFFFF" opacity="0.58"></rect><rect x="180.13" y="314.08" width="4.46" height="4.46" rx="0.80" fill="#FFFFFF" opacity="0.58"></rect><rect x="313.30" y="175.72" width="4.46" height="4.46" rx="0.80" fill="#FFFFFF" opacity="0.58"></rect><rect x="262.15" y="296.17" width="4.46" height="4.46" rx="0.80" fill="#FFFFFF" opacity="0.58"></rect><rect x="312.80" y="222.07" width="4.46" height="4.46" rx="0.80" fill="#FFFFFF" opacity="0.58"></rect><rect x="302.94" y="145.26" width="4.46" height="4.46" rx="0.80" fill="#FFFFFF" opacity="0.58"></rect><rect x="82.81" y="221.85" width="4.47" height="4.47" rx="0.80" fill="#FFFFFF" opacity="0.58"></rect><rect x="168.08" y="84.13" width="4.47" height="4.47" rx="0.80" fill="#FFFFFF" opacity="0.58"></rect><rect x="269.24" y="104.74" width="4.48" height="4.48" rx="0.81" fill="#FFFFFF" opacity="0.58"></rect><rect x="225.88" y="83.88" width="4.48" height="4.48" rx="0.81" fill="#FFFFFF" opacity="0.58"></rect><rect x="80.80" y="206.25" width="4.48" height="4.48" rx="0.81" fill="#FFFFFF" opacity="0.58"></rect><rect x="101.77" y="130.43" width="4.48" height="4.48" rx="0.81" fill="#FFFFFF" opacity="0.59"></rect><rect x="217.73" y="313.14" width="4.49" height="4.49" rx="0.81" fill="#FFFFFF" opacity="0.59"></rect><rect x="274.69" y="285.99" width="4.49" height="4.49" rx="0.81" fill="#FFFFFF" opacity="0.59"></rect><rect x="308.37" y="235.89" width="4.50" height="4.50" rx="0.81" fill="#FFFFFF" opacity="0.59"></rect><rect x="249.55" y="92.94" width="4.50" height="4.50" rx="0.81" fill="#FFFFFF" opacity="0.59"></rect><rect x="160.60" y="308.48" width="4.51" height="4.51" rx="0.81" fill="#FFFFFF" opacity="0.59"></rect><rect x="109.98" y="274.74" width="4.51" height="4.51" rx="0.81" fill="#FFFFFF" opacity="0.59"></rect><rect x="302.35" y="249.48" width="4.51" height="4.51" rx="0.81" fill="#FFFFFF" opacity="0.59"></rect><rect x="128.96" y="103.58" width="4.52" height="4.52" rx="0.81" fill="#FFFFFF" opacity="0.59"></rect><rect x="285.50" y="274.50" width="4.52" height="4.52" rx="0.81" fill="#FFFFFF" opacity="0.59"></rect><rect x="94.60" y="143.55" width="4.53" height="4.53" rx="0.81" fill="#FFFFFF" opacity="0.60"></rect><rect x="294.69" y="262.29" width="4.53" height="4.53" rx="0.81" fill="#FFFFFF" opacity="0.60"></rect><rect x="83.75" y="173.83" width="4.53" height="4.53" rx="0.82" fill="#FFFFFF" opacity="0.60"></rect><rect x="313.88" y="189.38" width="4.53" height="4.53" rx="0.82" fill="#FFFFFF" opacity="0.60"></rect><rect x="182.10" y="82.41" width="4.53" height="4.53" rx="0.82" fill="#FFFFFF" opacity="0.60"></rect><rect x="115.40" y="115.55" width="4.54" height="4.54" rx="0.82" fill="#FFFFFF" opacity="0.60"></rect><rect x="291.56" y="128.98" width="4.54" height="4.54" rx="0.82" fill="#FFFFFF" opacity="0.60"></rect><rect x="211.69" y="82.28" width="4.54" height="4.54" rx="0.82" fill="#FFFFFF" opacity="0.60"></rect><rect x="120.62" y="284.72" width="4.54" height="4.54" rx="0.82" fill="#FFFFFF" opacity="0.60"></rect><rect x="235.68" y="307.48" width="4.55" height="4.55" rx="0.82" fill="#FFFFFF" opacity="0.60"></rect><rect x="306.55" y="157.70" width="4.55" height="4.55" rx="0.82" fill="#FFFFFF" opacity="0.60"></rect><rect x="196.86" y="81.78" width="4.56" height="4.56" rx="0.82" fill="#FFFFFF" opacity="0.60"></rect><rect x="197.47" y="313.60" width="4.56" height="4.56" rx="0.82" fill="#FFFFFF" opacity="0.60"></rect><rect x="132.45" y="293.41" width="4.56" height="4.56" rx="0.82" fill="#FFFFFF" opacity="0.60"></rect><rect x="89.12" y="157.50" width="4.56" height="4.56" rx="0.82" fill="#FFFFFF" opacity="0.60"></rect><rect x="87.78" y="234.08" width="4.56" height="4.56" rx="0.82" fill="#FFFFFF" opacity="0.60"></rect><rect x="152.88" y="91.10" width="4.57" height="4.57" rx="0.82" fill="#FFFFFF" opacity="0.61"></rect><rect x="145.32" y="300.65" width="4.58" height="4.58" rx="0.82" fill="#FFFFFF" opacity="0.61"></rect><rect x="93.62" y="247.76" width="4.58" height="4.58" rx="0.82" fill="#FFFFFF" opacity="0.61"></rect><rect x="101.10" y="260.70" width="4.58" height="4.58" rx="0.83" fill="#FFFFFF" opacity="0.61"></rect><rect x="277.14" y="114.13" width="4.59" height="4.59" rx="0.83" fill="#FFFFFF" opacity="0.61"></rect><rect x="312.74" y="203.17" width="4.59" height="4.59" rx="0.83" fill="#FFFFFF" opacity="0.61"></rect><rect x="83.11" y="187.48" width="4.60" height="4.60" rx="0.83" fill="#FFFFFF" opacity="0.61"></rect><rect x="250.25" y="299.85" width="4.61" height="4.61" rx="0.83" fill="#FFFFFF" opacity="0.62"></rect><rect x="237.34" y="89.98" width="4.61" height="4.61" rx="0.83" fill="#FFFFFF" opacity="0.62"></rect><rect x="173.32" y="309.78" width="4.61" height="4.61" rx="0.83" fill="#FFFFFF" opacity="0.62"></rect><rect x="259.33" y="100.99" width="4.61" height="4.61" rx="0.83" fill="#FFFFFF" opacity="0.62"></rect><rect x="206.62" y="311.85" width="4.62" height="4.62" rx="0.83" fill="#FFFFFF" opacity="0.62"></rect><rect x="188.51" y="311.70" width="4.63" height="4.63" rx="0.83" fill="#FFFFFF" opacity="0.62"></rect><rect x="296.64" y="140.59" width="4.63" height="4.63" rx="0.83" fill="#FFFFFF" opacity="0.62"></rect><rect x="308.65" y="170.84" width="4.64" height="4.64" rx="0.83" fill="#FFFFFF" opacity="0.62"></rect><rect x="109.00" y="126.02" width="4.64" height="4.64" rx="0.84" fill="#FFFFFF" opacity="0.62"></rect><rect x="310.02" y="217.07" width="4.64" height="4.64" rx="0.84" fill="#FFFFFF" opacity="0.62"></rect><rect x="262.95" y="291.07" width="4.65" height="4.65" rx="0.84" fill="#FFFFFF" opacity="0.63"></rect><rect x="139.24" y="100.00" width="4.65" height="4.65" rx="0.84" fill="#FFFFFF" opacity="0.63"></rect><rect x="85.48" y="216.86" width="4.65" height="4.65" rx="0.84" fill="#FFFFFF" opacity="0.63"></rect><rect x="222.56" y="308.54" width="4.66" height="4.66" rx="0.84" fill="#FFFFFF" opacity="0.63"></rect><rect x="165.84" y="88.62" width="4.66" height="4.66" rx="0.84" fill="#FFFFFF" opacity="0.63"></rect><rect x="84.17" y="201.29" width="4.66" height="4.66" rx="0.84" fill="#FFFFFF" opacity="0.63"></rect><rect x="305.78" y="230.89" width="4.68" height="4.68" rx="0.84" fill="#FFFFFF" opacity="0.63"></rect><rect x="274.25" y="280.87" width="4.68" height="4.68" rx="0.84" fill="#FFFFFF" opacity="0.63"></rect><rect x="124.33" y="111.57" width="4.68" height="4.68" rx="0.84" fill="#FFFFFF" opacity="0.63"></rect><rect x="223.80" y="87.85" width="4.69" height="4.69" rx="0.84" fill="#FFFFFF" opacity="0.64"></rect><rect x="158.65" y="303.51" width="4.69" height="4.69" rx="0.84" fill="#FFFFFF" opacity="0.64"></rect><rect x="283.63" y="124.68" width="4.69" height="4.69" rx="0.84" fill="#FFFFFF" opacity="0.64"></rect><rect x="101.36" y="138.98" width="4.69" height="4.69" rx="0.84" fill="#FFFFFF" opacity="0.64"></rect><rect x="111.03" y="269.70" width="4.69" height="4.69" rx="0.84" fill="#FFFFFF" opacity="0.64"></rect><rect x="300.06" y="244.42" width="4.70" height="4.70" rx="0.85" fill="#FFFFFF" opacity="0.64"></rect><rect x="88.87" y="169.03" width="4.70" height="4.70" rx="0.85" fill="#FFFFFF" opacity="0.64"></rect><rect x="284.16" y="269.46" width="4.70" height="4.70" rx="0.85" fill="#FFFFFF" opacity="0.64"></rect><rect x="309.21" y="184.48" width="4.71" height="4.71" rx="0.85" fill="#FFFFFF" opacity="0.64"></rect><rect x="292.78" y="257.26" width="4.71" height="4.71" rx="0.85" fill="#FFFFFF" opacity="0.64"></rect><rect x="179.90" y="87.02" width="4.72" height="4.72" rx="0.85" fill="#FFFFFF" opacity="0.64"></rect><rect x="300.25" y="153.06" width="4.72" height="4.72" rx="0.85" fill="#FFFFFF" opacity="0.64"></rect><rect x="121.57" y="279.61" width="4.72" height="4.72" rx="0.85" fill="#FFFFFF" opacity="0.65"></rect><rect x="267.50" y="110.32" width="4.72" height="4.72" rx="0.85" fill="#FFFFFF" opacity="0.65"></rect><rect x="236.37" y="302.48" width="4.73" height="4.73" rx="0.85" fill="#FFFFFF" opacity="0.65"></rect><rect x="247.83" y="97.83" width="4.73" height="4.73" rx="0.85" fill="#FFFFFF" opacity="0.65"></rect><rect x="95.32" y="152.87" width="4.73" height="4.73" rx="0.85" fill="#FFFFFF" opacity="0.65"></rect><rect x="209.38" y="86.63" width="4.73" height="4.73" rx="0.85" fill="#FFFFFF" opacity="0.65"></rect><rect x="194.58" y="86.35" width="4.74" height="4.74" rx="0.85" fill="#FFFFFF" opacity="0.65"></rect><rect x="90.87" y="229.12" width="4.74" height="4.74" rx="0.85" fill="#FFFFFF" opacity="0.65"></rect><rect x="133.25" y="288.30" width="4.74" height="4.74" rx="0.85" fill="#FFFFFF" opacity="0.65"></rect><rect x="206.80" y="308.20" width="4.75" height="4.75" rx="0.86" fill="#FFFFFF" opacity="0.65"></rect><rect x="151.04" y="97.04" width="4.76" height="4.76" rx="0.86" fill="#FFFFFF" opacity="0.65"></rect><rect x="145.90" y="295.66" width="4.76" height="4.76" rx="0.86" fill="#FFFFFF" opacity="0.65"></rect><rect x="96.41" y="242.74" width="4.76" height="4.76" rx="0.86" fill="#FFFFFF" opacity="0.65"></rect><rect x="188.69" y="308.05" width="4.76" height="4.76" rx="0.86" fill="#FFFFFF" opacity="0.65"></rect><rect x="103.51" y="255.70" width="4.76" height="4.76" rx="0.86" fill="#FFFFFF" opacity="0.66"></rect><rect x="308.11" y="198.31" width="4.77" height="4.77" rx="0.86" fill="#FFFFFF" opacity="0.66"></rect><rect x="88.26" y="182.66" width="4.77" height="4.77" rx="0.86" fill="#FFFFFF" opacity="0.66"></rect><rect x="248.86" y="294.87" width="4.79" height="4.79" rx="0.86" fill="#FFFFFF" opacity="0.66"></rect><rect x="117.88" y="122.00" width="4.79" height="4.79" rx="0.86" fill="#FFFFFF" opacity="0.66"></rect><rect x="288.66" y="136.24" width="4.79" height="4.79" rx="0.86" fill="#FFFFFF" opacity="0.66"></rect><rect x="174.23" y="304.88" width="4.79" height="4.79" rx="0.86" fill="#FFFFFF" opacity="0.66"></rect><rect x="302.33" y="166.20" width="4.80" height="4.80" rx="0.86" fill="#FFFFFF" opacity="0.66"></rect><rect x="134.84" y="108.09" width="4.80" height="4.80" rx="0.86" fill="#FFFFFF" opacity="0.67"></rect><rect x="235.05" y="95.36" width="4.82" height="4.82" rx="0.87" fill="#FFFFFF" opacity="0.67"></rect><rect x="305.48" y="212.23" width="4.82" height="4.82" rx="0.87" fill="#FFFFFF" opacity="0.67"></rect><rect x="197.84" y="306.30" width="4.82" height="4.82" rx="0.87" fill="#FFFFFF" opacity="0.67"></rect><rect x="89.93" y="212.03" width="4.82" height="4.82" rx="0.87" fill="#FFFFFF" opacity="0.67"></rect><rect x="260.48" y="286.03" width="4.83" height="4.83" rx="0.87" fill="#FFFFFF" opacity="0.67"></rect><rect x="274.11" y="120.80" width="4.83" height="4.83" rx="0.87" fill="#FFFFFF" opacity="0.67"></rect><rect x="219.48" y="303.74" width="4.83" height="4.83" rx="0.87" fill="#FFFFFF" opacity="0.67"></rect><rect x="89.27" y="196.51" width="4.83" height="4.83" rx="0.87" fill="#FFFFFF" opacity="0.67"></rect><rect x="164.06" y="94.78" width="4.84" height="4.84" rx="0.87" fill="#FFFFFF" opacity="0.67"></rect><rect x="256.39" y="107.03" width="4.84" height="4.84" rx="0.87" fill="#FFFFFF" opacity="0.67"></rect><rect x="109.76" y="134.77" width="4.84" height="4.84" rx="0.87" fill="#FFFFFF" opacity="0.67"></rect><rect x="301.34" y="226.04" width="4.85" height="4.85" rx="0.87" fill="#FFFFFF" opacity="0.68"></rect><rect x="271.04" y="275.86" width="4.86" height="4.86" rx="0.87" fill="#FFFFFF" opacity="0.68"></rect><rect x="161.96" y="298.64" width="4.86" height="4.86" rx="0.88" fill="#FFFFFF" opacity="0.68"></rect><rect x="95.65" y="164.49" width="4.86" height="4.86" rx="0.88" fill="#FFFFFF" opacity="0.68"></rect><rect x="114.44" y="264.78" width="4.87" height="4.87" rx="0.88" fill="#FFFFFF" opacity="0.68"></rect><rect x="295.78" y="239.52" width="4.87" height="4.87" rx="0.88" fill="#FFFFFF" opacity="0.68"></rect><rect x="302.86" y="179.81" width="4.87" height="4.87" rx="0.88" fill="#FFFFFF" opacity="0.68"></rect><rect x="292.34" y="148.72" width="4.88" height="4.88" rx="0.88" fill="#FFFFFF" opacity="0.68"></rect><rect x="221.30" y="93.64" width="4.88" height="4.88" rx="0.88" fill="#FFFFFF" opacity="0.68"></rect><rect x="280.45" y="264.55" width="4.88" height="4.88" rx="0.88" fill="#FFFFFF" opacity="0.68"></rect><rect x="288.74" y="252.39" width="4.88" height="4.88" rx="0.88" fill="#FFFFFF" opacity="0.68"></rect><rect x="103.15" y="148.55" width="4.89" height="4.89" rx="0.88" fill="#FFFFFF" opacity="0.69"></rect><rect x="177.96" y="93.28" width="4.89" height="4.89" rx="0.88" fill="#FFFFFF" opacity="0.69"></rect><rect x="231.84" y="297.71" width="4.90" height="4.90" rx="0.88" fill="#FFFFFF" opacity="0.69"></rect><rect x="125.27" y="274.66" width="4.90" height="4.90" rx="0.88" fill="#FFFFFF" opacity="0.69"></rect><rect x="146.69" y="105.19" width="4.91" height="4.91" rx="0.88" fill="#FFFFFF" opacity="0.69"></rect><rect x="206.96" y="92.70" width="4.91" height="4.91" rx="0.88" fill="#FFFFFF" opacity="0.69"></rect><rect x="95.78" y="224.34" width="4.91" height="4.91" rx="0.88" fill="#FFFFFF" opacity="0.69"></rect><rect x="128.26" y="118.44" width="4.92" height="4.92" rx="0.88" fill="#FFFFFF" opacity="0.69"></rect><rect x="192.39" y="92.58" width="4.92" height="4.92" rx="0.89" fill="#FFFFFF" opacity="0.69"></rect><rect x="137.28" y="283.40" width="4.92" height="4.92" rx="0.89" fill="#FFFFFF" opacity="0.69"></rect><rect x="150.31" y="290.91" width="4.93" height="4.93" rx="0.89" fill="#FFFFFF" opacity="0.70"></rect><rect x="182.58" y="300.95" width="4.93" height="4.93" rx="0.89" fill="#FFFFFF" opacity="0.70"></rect><rect x="101.18" y="237.92" width="4.93" height="4.93" rx="0.89" fill="#FFFFFF" opacity="0.70"></rect><rect x="279.13" y="132.29" width="4.93" height="4.93" rx="0.89" fill="#FFFFFF" opacity="0.70"></rect><rect x="301.82" y="193.69" width="4.93" height="4.93" rx="0.89" fill="#FFFFFF" opacity="0.70"></rect><rect x="95.07" y="178.09" width="4.94" height="4.94" rx="0.89" fill="#FFFFFF" opacity="0.70"></rect><rect x="108.02" y="250.90" width="4.94" height="4.94" rx="0.89" fill="#FFFFFF" opacity="0.70"></rect><rect x="244.03" y="104.34" width="4.94" height="4.94" rx="0.89" fill="#FFFFFF" opacity="0.70"></rect><rect x="263.16" y="117.41" width="4.95" height="4.95" rx="0.89" fill="#FFFFFF" opacity="0.70"></rect><rect x="243.69" y="290.19" width="4.95" height="4.95" rx="0.89" fill="#FFFFFF" opacity="0.70"></rect><rect x="209.47" y="300.27" width="4.96" height="4.96" rx="0.89" fill="#FFFFFF" opacity="0.70"></rect><rect x="294.43" y="161.85" width="4.96" height="4.96" rx="0.89" fill="#FFFFFF" opacity="0.70"></rect><rect x="119.68" y="130.98" width="4.98" height="4.98" rx="0.90" fill="#FFFFFF" opacity="0.71"></rect><rect x="299.23" y="207.63" width="4.98" height="4.98" rx="0.90" fill="#FFFFFF" opacity="0.71"></rect><rect x="96.08" y="207.44" width="4.99" height="4.99" rx="0.90" fill="#FFFFFF" opacity="0.71"></rect><rect x="159.64" y="102.92" width="4.99" height="4.99" rx="0.90" fill="#FFFFFF" opacity="0.71"></rect><rect x="195.72" y="299.23" width="4.99" height="4.99" rx="0.90" fill="#FFFFFF" opacity="0.71"></rect><rect x="96.02" y="191.99" width="5.00" height="5.00" rx="0.90" fill="#FFFFFF" opacity="0.71"></rect><rect x="254.86" y="281.30" width="5.00" height="5.00" rx="0.90" fill="#FFFFFF" opacity="0.71"></rect><rect x="170.10" y="294.53" width="5.01" height="5.01" rx="0.90" fill="#FFFFFF" opacity="0.72"></rect><rect x="230.69" y="102.30" width="5.01" height="5.01" rx="0.90" fill="#FFFFFF" opacity="0.72"></rect><rect x="103.98" y="160.28" width="5.02" height="5.02" rx="0.90" fill="#FFFFFF" opacity="0.72"></rect><rect x="295.13" y="221.43" width="5.02" height="5.02" rx="0.90" fill="#FFFFFF" opacity="0.72"></rect><rect x="282.94" y="144.76" width="5.02" height="5.02" rx="0.90" fill="#FFFFFF" opacity="0.72"></rect><rect x="139.94" y="115.41" width="5.03" height="5.03" rx="0.90" fill="#FFFFFF" opacity="0.72"></rect><rect x="112.46" y="144.61" width="5.03" height="5.03" rx="0.90" fill="#FFFFFF" opacity="0.72"></rect><rect x="265.18" y="271.16" width="5.03" height="5.03" rx="0.91" fill="#FFFFFF" opacity="0.72"></rect><rect x="294.91" y="175.44" width="5.03" height="5.03" rx="0.91" fill="#FFFFFF" opacity="0.72"></rect><rect x="222.69" y="293.83" width="5.04" height="5.04" rx="0.91" fill="#FFFFFF" opacity="0.72"></rect><rect x="120.13" y="260.14" width="5.04" height="5.04" rx="0.91" fill="#FFFFFF" opacity="0.72"></rect><rect x="289.59" y="234.88" width="5.04" height="5.04" rx="0.91" fill="#FFFFFF" opacity="0.72"></rect><rect x="274.50" y="259.93" width="5.05" height="5.05" rx="0.91" fill="#FFFFFF" opacity="0.73"></rect><rect x="173.41" y="101.34" width="5.05" height="5.05" rx="0.91" fill="#FFFFFF" opacity="0.73"></rect><rect x="282.67" y="247.77" width="5.05" height="5.05" rx="0.91" fill="#FFFFFF" opacity="0.73"></rect><rect x="251.01" y="114.56" width="5.06" height="5.06" rx="0.91" fill="#FFFFFF" opacity="0.73"></rect><rect x="268.21" y="128.80" width="5.06" height="5.06" rx="0.91" fill="#FFFFFF" opacity="0.73"></rect><rect x="216.66" y="100.96" width="5.06" height="5.06" rx="0.91" fill="#FFFFFF" opacity="0.73"></rect><rect x="131.59" y="270.06" width="5.07" height="5.07" rx="0.91" fill="#FFFFFF" opacity="0.73"></rect><rect x="102.45" y="219.84" width="5.08" height="5.08" rx="0.91" fill="#FFFFFF" opacity="0.73"></rect><rect x="158.24" y="286.76" width="5.08" height="5.08" rx="0.91" fill="#FFFFFF" opacity="0.73"></rect><rect x="187.71" y="100.48" width="5.08" height="5.08" rx="0.91" fill="#FFFFFF" opacity="0.73"></rect><rect x="144.34" y="278.94" width="5.08" height="5.08" rx="0.91" fill="#FFFFFF" opacity="0.73"></rect><rect x="202.23" y="100.35" width="5.08" height="5.08" rx="0.92" fill="#FFFFFF" opacity="0.73"></rect><rect x="103.44" y="173.86" width="5.09" height="5.09" rx="0.92" fill="#FFFFFF" opacity="0.74"></rect><rect x="293.95" y="189.36" width="5.09" height="5.09" rx="0.92" fill="#FFFFFF" opacity="0.74"></rect><rect x="107.82" y="233.38" width="5.10" height="5.10" rx="0.92" fill="#FFFFFF" opacity="0.74"></rect><rect x="130.93" y="127.67" width="5.10" height="5.10" rx="0.92" fill="#FFFFFF" opacity="0.74"></rect><rect x="235.10" y="286.17" width="5.10" height="5.10" rx="0.92" fill="#FFFFFF" opacity="0.74"></rect><rect x="114.54" y="246.39" width="5.10" height="5.10" rx="0.92" fill="#FFFFFF" opacity="0.74"></rect><rect x="285.06" y="157.88" width="5.10" height="5.10" rx="0.92" fill="#FFFFFF" opacity="0.74"></rect><rect x="152.71" y="112.97" width="5.11" height="5.11" rx="0.92" fill="#FFFFFF" opacity="0.74"></rect><rect x="181.96" y="291.73" width="5.11" height="5.11" rx="0.92" fill="#FFFFFF" opacity="0.74"></rect><rect x="210.16" y="291.35" width="5.13" height="5.13" rx="0.92" fill="#FFFFFF" opacity="0.75"></rect><rect x="237.87" y="112.32" width="5.14" height="5.14" rx="0.92" fill="#FFFFFF" opacity="0.75"></rect><rect x="291.39" y="203.33" width="5.14" height="5.14" rx="0.92" fill="#FFFFFF" opacity="0.75"></rect><rect x="103.83" y="203.16" width="5.14" height="5.14" rx="0.93" fill="#FFFFFF" opacity="0.75"></rect><rect x="104.31" y="187.80" width="5.15" height="5.15" rx="0.93" fill="#FFFFFF" opacity="0.75"></rect><rect x="272.19" y="141.24" width="5.15" height="5.15" rx="0.93" fill="#FFFFFF" opacity="0.75"></rect><rect x="246.37" y="277.11" width="5.15" height="5.15" rx="0.93" fill="#FFFFFF" opacity="0.75"></rect><rect x="123.13" y="141.11" width="5.15" height="5.15" rx="0.93" fill="#FFFFFF" opacity="0.75"></rect><rect x="195.94" y="290.62" width="5.15" height="5.15" rx="0.93" fill="#FFFFFF" opacity="0.75"></rect><rect x="113.73" y="156.47" width="5.15" height="5.15" rx="0.93" fill="#FFFFFF" opacity="0.75"></rect><rect x="256.09" y="125.84" width="5.16" height="5.16" rx="0.93" fill="#FFFFFF" opacity="0.75"></rect><rect x="287.26" y="217.14" width="5.17" height="5.17" rx="0.93" fill="#FFFFFF" opacity="0.76"></rect><rect x="285.49" y="171.44" width="5.18" height="5.18" rx="0.93" fill="#FFFFFF" opacity="0.76"></rect><rect x="166.31" y="111.16" width="5.18" height="5.18" rx="0.93" fill="#FFFFFF" opacity="0.76"></rect><rect x="256.88" y="266.92" width="5.18" height="5.18" rx="0.93" fill="#FFFFFF" opacity="0.76"></rect><rect x="127.93" y="255.89" width="5.19" height="5.19" rx="0.93" fill="#FFFFFF" opacity="0.76"></rect><rect x="223.98" y="110.71" width="5.19" height="5.19" rx="0.94" fill="#FFFFFF" opacity="0.76"></rect><rect x="169.09" y="283.52" width="5.19" height="5.19" rx="0.94" fill="#FFFFFF" opacity="0.76"></rect><rect x="281.61" y="230.57" width="5.20" height="5.20" rx="0.94" fill="#FFFFFF" opacity="0.76"></rect><rect x="143.34" y="124.91" width="5.20" height="5.20" rx="0.94" fill="#FFFFFF" opacity="0.76"></rect><rect x="266.44" y="255.70" width="5.20" height="5.20" rx="0.94" fill="#FFFFFF" opacity="0.76"></rect><rect x="274.71" y="243.52" width="5.20" height="5.20" rx="0.94" fill="#FFFFFF" opacity="0.76"></rect><rect x="223.74" y="283.10" width="5.21" height="5.21" rx="0.94" fill="#FFFFFF" opacity="0.77"></rect><rect x="140.31" y="265.96" width="5.22" height="5.22" rx="0.94" fill="#FFFFFF" opacity="0.77"></rect><rect x="154.08" y="275.15" width="5.22" height="5.22" rx="0.94" fill="#FFFFFF" opacity="0.77"></rect><rect x="180.51" y="110.01" width="5.22" height="5.22" rx="0.94" fill="#FFFFFF" opacity="0.77"></rect><rect x="110.74" y="215.68" width="5.23" height="5.23" rx="0.94" fill="#FFFFFF" opacity="0.77"></rect><rect x="113.24" y="170.02" width="5.23" height="5.23" rx="0.94" fill="#FFFFFF" opacity="0.77"></rect><rect x="209.62" y="109.79" width="5.23" height="5.23" rx="0.94" fill="#FFFFFF" opacity="0.77"></rect><rect x="274.38" y="154.33" width="5.23" height="5.23" rx="0.94" fill="#FFFFFF" opacity="0.77"></rect><rect x="284.62" y="185.40" width="5.23" height="5.23" rx="0.94" fill="#FFFFFF" opacity="0.77"></rect><rect x="195.04" y="109.55" width="5.24" height="5.24" rx="0.94" fill="#FFFFFF" opacity="0.77"></rect><rect x="116.22" y="229.21" width="5.25" height="5.25" rx="0.94" fill="#FFFFFF" opacity="0.77"></rect><rect x="122.92" y="242.27" width="5.25" height="5.25" rx="0.94" fill="#FFFFFF" opacity="0.78"></rect><rect x="242.97" y="123.46" width="5.25" height="5.25" rx="0.95" fill="#FFFFFF" opacity="0.78"></rect><rect x="260.28" y="138.22" width="5.26" height="5.26" rx="0.95" fill="#FFFFFF" opacity="0.78"></rect><rect x="134.98" y="138.10" width="5.26" height="5.26" rx="0.95" fill="#FFFFFF" opacity="0.78"></rect><rect x="182.06" y="281.42" width="5.27" height="5.27" rx="0.95" fill="#FFFFFF" opacity="0.78"></rect><rect x="235.44" y="273.69" width="5.27" height="5.27" rx="0.95" fill="#FFFFFF" opacity="0.78"></rect><rect x="124.76" y="153.10" width="5.28" height="5.28" rx="0.95" fill="#FFFFFF" opacity="0.78"></rect><rect x="156.68" y="122.75" width="5.28" height="5.28" rx="0.95" fill="#FFFFFF" opacity="0.78"></rect><rect x="210.44" y="281.21" width="5.28" height="5.28" rx="0.95" fill="#FFFFFF" opacity="0.78"></rect><rect x="282.07" y="199.40" width="5.28" height="5.28" rx="0.95" fill="#FFFFFF" opacity="0.78"></rect><rect x="114.02" y="184.00" width="5.28" height="5.28" rx="0.95" fill="#FFFFFF" opacity="0.78"></rect><rect x="113.07" y="199.25" width="5.29" height="5.29" rx="0.95" fill="#FFFFFF" opacity="0.78"></rect><rect x="196.20" y="280.63" width="5.30" height="5.30" rx="0.95" fill="#FFFFFF" opacity="0.79"></rect><rect x="274.75" y="167.88" width="5.31" height="5.31" rx="0.95" fill="#FFFFFF" opacity="0.79"></rect><rect x="246.44" y="263.30" width="5.31" height="5.31" rx="0.96" fill="#FFFFFF" opacity="0.79"></rect><rect x="277.85" y="213.24" width="5.31" height="5.31" rx="0.96" fill="#FFFFFF" opacity="0.79"></rect><rect x="229.09" y="121.69" width="5.31" height="5.31" rx="0.96" fill="#FFFFFF" opacity="0.79"></rect><rect x="166.00" y="272.21" width="5.33" height="5.33" rx="0.96" fill="#FFFFFF" opacity="0.79"></rect><rect x="137.64" y="252.15" width="5.33" height="5.33" rx="0.96" fill="#FFFFFF" opacity="0.79"></rect><rect x="170.73" y="121.21" width="5.33" height="5.33" rx="0.96" fill="#FFFFFF" opacity="0.80"></rect><rect x="256.52" y="251.99" width="5.33" height="5.33" rx="0.96" fill="#FFFFFF" opacity="0.80"></rect><rect x="272.00" y="226.69" width="5.34" height="5.34" rx="0.96" fill="#FFFFFF" opacity="0.80"></rect><rect x="151.09" y="262.51" width="5.34" height="5.34" rx="0.96" fill="#FFFFFF" opacity="0.80"></rect><rect x="265.02" y="239.73" width="5.34" height="5.34" rx="0.96" fill="#FFFFFF" opacity="0.80"></rect><rect x="262.53" y="151.27" width="5.34" height="5.34" rx="0.96" fill="#FFFFFF" opacity="0.80"></rect><rect x="247.39" y="135.74" width="5.35" height="5.35" rx="0.96" fill="#FFFFFF" opacity="0.80"></rect><rect x="124.33" y="166.64" width="5.35" height="5.35" rx="0.96" fill="#FFFFFF" opacity="0.80"></rect><rect x="147.82" y="135.64" width="5.35" height="5.35" rx="0.96" fill="#FFFFFF" opacity="0.80"></rect><rect x="214.67" y="120.56" width="5.36" height="5.36" rx="0.96" fill="#FFFFFF" opacity="0.80"></rect><rect x="273.98" y="181.87" width="5.36" height="5.36" rx="0.97" fill="#FFFFFF" opacity="0.80"></rect><rect x="120.52" y="211.94" width="5.36" height="5.36" rx="0.97" fill="#FFFFFF" opacity="0.80"></rect><rect x="222.63" y="271.20" width="5.36" height="5.36" rx="0.97" fill="#FFFFFF" opacity="0.80"></rect><rect x="185.24" y="120.32" width="5.36" height="5.36" rx="0.97" fill="#FFFFFF" opacity="0.80"></rect><rect x="199.97" y="120.10" width="5.37" height="5.37" rx="0.97" fill="#FFFFFF" opacity="0.81"></rect><rect x="136.90" y="150.24" width="5.38" height="5.38" rx="0.97" fill="#FFFFFF" opacity="0.81"></rect><rect x="126.20" y="225.49" width="5.38" height="5.38" rx="0.97" fill="#FFFFFF" opacity="0.81"></rect><rect x="132.97" y="238.64" width="5.38" height="5.38" rx="0.97" fill="#FFFFFF" opacity="0.81"></rect><rect x="179.52" y="270.28" width="5.40" height="5.40" rx="0.97" fill="#FFFFFF" opacity="0.81"></rect><rect x="125.00" y="180.65" width="5.41" height="5.41" rx="0.97" fill="#FFFFFF" opacity="0.81"></rect><rect x="271.42" y="195.92" width="5.41" height="5.41" rx="0.97" fill="#FFFFFF" opacity="0.81"></rect><rect x="123.65" y="195.78" width="5.41" height="5.41" rx="0.97" fill="#FFFFFF" opacity="0.82"></rect><rect x="208.56" y="269.76" width="5.41" height="5.41" rx="0.97" fill="#FFFFFF" opacity="0.82"></rect><rect x="233.72" y="133.84" width="5.42" height="5.42" rx="0.97" fill="#FFFFFF" opacity="0.82"></rect><rect x="262.84" y="164.80" width="5.42" height="5.42" rx="0.97" fill="#FFFFFF" opacity="0.82"></rect><rect x="234.24" y="260.43" width="5.42" height="5.42" rx="0.97" fill="#FFFFFF" opacity="0.82"></rect><rect x="161.45" y="133.77" width="5.42" height="5.42" rx="0.98" fill="#FFFFFF" opacity="0.82"></rect><rect x="193.94" y="269.44" width="5.43" height="5.43" rx="0.98" fill="#FFFFFF" opacity="0.82"></rect><rect x="249.71" y="148.74" width="5.43" height="5.43" rx="0.98" fill="#FFFFFF" opacity="0.82"></rect><rect x="163.56" y="259.85" width="5.44" height="5.44" rx="0.98" fill="#FFFFFF" opacity="0.82"></rect><rect x="267.08" y="209.80" width="5.44" height="5.44" rx="0.98" fill="#FFFFFF" opacity="0.82"></rect><rect x="148.99" y="249.03" width="5.44" height="5.44" rx="0.98" fill="#FFFFFF" opacity="0.82"></rect><rect x="244.99" y="248.90" width="5.44" height="5.44" rx="0.98" fill="#FFFFFF" opacity="0.82"></rect><rect x="136.54" y="163.76" width="5.45" height="5.45" rx="0.98" fill="#FFFFFF" opacity="0.83"></rect><rect x="253.84" y="236.47" width="5.46" height="5.46" rx="0.98" fill="#FFFFFF" opacity="0.83"></rect><rect x="260.95" y="223.31" width="5.46" height="5.46" rx="0.98" fill="#FFFFFF" opacity="0.83"></rect><rect x="219.48" y="132.55" width="5.46" height="5.46" rx="0.98" fill="#FFFFFF" opacity="0.83"></rect><rect x="149.96" y="147.92" width="5.46" height="5.46" rx="0.98" fill="#FFFFFF" opacity="0.83"></rect><rect x="175.66" y="132.51" width="5.46" height="5.46" rx="0.98" fill="#FFFFFF" opacity="0.83"></rect><rect x="262.19" y="178.82" width="5.47" height="5.47" rx="0.98" fill="#FFFFFF" opacity="0.83"></rect><rect x="131.63" y="208.68" width="5.48" height="5.48" rx="0.99" fill="#FFFFFF" opacity="0.83"></rect><rect x="204.91" y="131.89" width="5.49" height="5.49" rx="0.99" fill="#FFFFFF" opacity="0.83"></rect><rect x="190.22" y="131.88" width="5.49" height="5.49" rx="0.99" fill="#FFFFFF" opacity="0.83"></rect><rect x="220.73" y="258.41" width="5.49" height="5.49" rx="0.99" fill="#FFFFFF" opacity="0.84"></rect><rect x="144.47" y="235.57" width="5.49" height="5.49" rx="0.99" fill="#FFFFFF" opacity="0.84"></rect><rect x="137.58" y="222.30" width="5.50" height="5.50" rx="0.99" fill="#FFFFFF" opacity="0.84"></rect><rect x="177.27" y="258.05" width="5.50" height="5.50" rx="0.99" fill="#FFFFFF" opacity="0.84"></rect><rect x="236.10" y="146.77" width="5.50" height="5.50" rx="0.99" fill="#FFFFFF" opacity="0.84"></rect><rect x="249.95" y="162.25" width="5.51" height="5.51" rx="0.99" fill="#FFFFFF" opacity="0.84"></rect><rect x="137.09" y="177.79" width="5.51" height="5.51" rx="0.99" fill="#FFFFFF" opacity="0.84"></rect><rect x="259.61" y="192.92" width="5.51" height="5.51" rx="0.99" fill="#FFFFFF" opacity="0.84"></rect><rect x="135.39" y="192.80" width="5.52" height="5.52" rx="0.99" fill="#FFFFFF" opacity="0.84"></rect><rect x="163.75" y="146.18" width="5.53" height="5.53" rx="0.99" fill="#FFFFFF" opacity="0.84"></rect><rect x="161.66" y="246.60" width="5.53" height="5.53" rx="0.99" fill="#FFFFFF" opacity="0.84"></rect><rect x="206.38" y="257.33" width="5.53" height="5.53" rx="1.00" fill="#FFFFFF" opacity="0.84"></rect><rect x="232.17" y="246.51" width="5.53" height="5.53" rx="1.00" fill="#FFFFFF" opacity="0.85"></rect><rect x="191.72" y="257.20" width="5.53" height="5.53" rx="1.00" fill="#FFFFFF" opacity="0.85"></rect><rect x="149.67" y="161.43" width="5.54" height="5.54" rx="1.00" fill="#FFFFFF" opacity="0.85"></rect><rect x="255.12" y="206.87" width="5.54" height="5.54" rx="1.00" fill="#FFFFFF" opacity="0.85"></rect><rect x="221.91" y="145.40" width="5.55" height="5.55" rx="1.00" fill="#FFFFFF" opacity="0.85"></rect><rect x="241.40" y="233.84" width="5.55" height="5.55" rx="1.00" fill="#FFFFFF" opacity="0.85"></rect><rect x="248.67" y="220.50" width="5.56" height="5.56" rx="1.00" fill="#FFFFFF" opacity="0.85"></rect><rect x="249.42" y="176.30" width="5.56" height="5.56" rx="1.00" fill="#FFFFFF" opacity="0.85"></rect><rect x="178.06" y="145.04" width="5.57" height="5.57" rx="1.00" fill="#FFFFFF" opacity="0.85"></rect><rect x="143.87" y="205.96" width="5.58" height="5.58" rx="1.00" fill="#FFFFFF" opacity="0.86"></rect><rect x="157.16" y="233.14" width="5.58" height="5.58" rx="1.00" fill="#FFFFFF" opacity="0.86"></rect><rect x="236.27" y="160.28" width="5.58" height="5.58" rx="1.00" fill="#FFFFFF" opacity="0.86"></rect><rect x="207.37" y="144.65" width="5.58" height="5.58" rx="1.00" fill="#FFFFFF" opacity="0.86"></rect><rect x="192.67" y="144.53" width="5.59" height="5.59" rx="1.01" fill="#FFFFFF" opacity="0.86"></rect><rect x="175.33" y="244.94" width="5.59" height="5.59" rx="1.01" fill="#FFFFFF" opacity="0.86"></rect><rect x="218.41" y="244.88" width="5.59" height="5.59" rx="1.01" fill="#FFFFFF" opacity="0.86"></rect><rect x="150.13" y="219.69" width="5.59" height="5.59" rx="1.01" fill="#FFFFFF" opacity="0.86"></rect><rect x="150.10" y="175.48" width="5.59" height="5.59" rx="1.01" fill="#FFFFFF" opacity="0.86"></rect><rect x="163.53" y="159.68" width="5.60" height="5.60" rx="1.01" fill="#FFFFFF" opacity="0.86"></rect><rect x="246.83" y="190.46" width="5.60" height="5.60" rx="1.01" fill="#FFFFFF" opacity="0.86"></rect><rect x="148.12" y="190.36" width="5.61" height="5.61" rx="1.01" fill="#FFFFFF" opacity="0.86"></rect><rect x="189.60" y="244.09" width="5.62" height="5.62" rx="1.01" fill="#FFFFFF" opacity="0.87"></rect><rect x="204.09" y="244.07" width="5.62" height="5.62" rx="1.01" fill="#FFFFFF" opacity="0.87"></rect><rect x="227.98" y="231.88" width="5.62" height="5.62" rx="1.01" fill="#FFFFFF" opacity="0.87"></rect><rect x="222.01" y="158.90" width="5.63" height="5.63" rx="1.01" fill="#FFFFFF" opacity="0.87"></rect><rect x="242.18" y="204.52" width="5.63" height="5.63" rx="1.01" fill="#FFFFFF" opacity="0.87"></rect><rect x="235.87" y="174.34" width="5.63" height="5.63" rx="1.01" fill="#FFFFFF" opacity="0.87"></rect><rect x="235.39" y="218.31" width="5.64" height="5.64" rx="1.02" fill="#FFFFFF" opacity="0.87"></rect><rect x="170.76" y="231.40" width="5.64" height="5.64" rx="1.02" fill="#FFFFFF" opacity="0.87"></rect><rect x="177.92" y="158.54" width="5.64" height="5.64" rx="1.02" fill="#FFFFFF" opacity="0.87"></rect><rect x="163.83" y="173.75" width="5.65" height="5.65" rx="1.02" fill="#FFFFFF" opacity="0.88"></rect><rect x="157.03" y="203.82" width="5.65" height="5.65" rx="1.02" fill="#FFFFFF" opacity="0.88"></rect><rect x="207.38" y="158.15" width="5.66" height="5.66" rx="1.02" fill="#FFFFFF" opacity="0.88"></rect><rect x="192.61" y="158.03" width="5.66" height="5.66" rx="1.02" fill="#FFFFFF" opacity="0.88"></rect><rect x="163.61" y="217.72" width="5.66" height="5.66" rx="1.02" fill="#FFFFFF" opacity="0.88"></rect><rect x="213.90" y="230.63" width="5.67" height="5.67" rx="1.02" fill="#FFFFFF" opacity="0.88"></rect><rect x="233.28" y="188.57" width="5.67" height="5.67" rx="1.02" fill="#FFFFFF" opacity="0.88"></rect><rect x="161.64" y="188.51" width="5.67" height="5.67" rx="1.02" fill="#FFFFFF" opacity="0.88"></rect><rect x="184.96" y="230.39" width="5.68" height="5.68" rx="1.02" fill="#FFFFFF" opacity="0.88"></rect><rect x="221.74" y="172.98" width="5.68" height="5.68" rx="1.02" fill="#FFFFFF" opacity="0.88"></rect><rect x="199.45" y="230.13" width="5.69" height="5.69" rx="1.02" fill="#FFFFFF" opacity="0.88"></rect><rect x="228.48" y="202.77" width="5.69" height="5.69" rx="1.02" fill="#FFFFFF" opacity="0.89"></rect><rect x="221.39" y="216.79" width="5.69" height="5.69" rx="1.03" fill="#FFFFFF" opacity="0.89"></rect><rect x="178.08" y="172.62" width="5.70" height="5.70" rx="1.03" fill="#FFFFFF" opacity="0.89"></rect><rect x="177.75" y="216.43" width="5.71" height="5.71" rx="1.03" fill="#FFFFFF" opacity="0.89"></rect><rect x="207.26" y="172.23" width="5.71" height="5.71" rx="1.03" fill="#FFFFFF" opacity="0.89"></rect><rect x="170.89" y="202.30" width="5.71" height="5.71" rx="1.03" fill="#FFFFFF" opacity="0.89"></rect><rect x="192.63" y="172.11" width="5.71" height="5.71" rx="1.03" fill="#FFFFFF" opacity="0.89"></rect><rect x="219.16" y="187.29" width="5.72" height="5.72" rx="1.03" fill="#FFFFFF" opacity="0.89"></rect><rect x="175.72" y="187.25" width="5.72" height="5.72" rx="1.03" fill="#FFFFFF" opacity="0.89"></rect><rect x="206.93" y="215.96" width="5.72" height="5.72" rx="1.03" fill="#FFFFFF" opacity="0.89"></rect><rect x="192.29" y="215.84" width="5.73" height="5.73" rx="1.03" fill="#FFFFFF" opacity="0.89"></rect><rect x="214.26" y="201.66" width="5.73" height="5.73" rx="1.03" fill="#FFFFFF" opacity="0.90"></rect><rect x="204.71" y="186.64" width="5.74" height="5.74" rx="1.03" fill="#FFFFFF" opacity="0.90"></rect><rect x="185.21" y="201.42" width="5.74" height="5.74" rx="1.03" fill="#FFFFFF" opacity="0.90"></rect><rect x="190.16" y="186.63" width="5.74" height="5.74" rx="1.03" fill="#FFFFFF" opacity="0.90"></rect><rect x="199.75" y="201.21" width="5.75" height="5.75" rx="1.03" fill="#FFFFFF" opacity="0.90"></rect></g><ellipse cx="200" cy="200" rx="165.60" ry="40.80" transform="rotate(-32 200 200)" fill="none" stroke="url(#gd2l37)" stroke-width="2.67"></ellipse><circle cx="324.51" cy="105.70" r="6.67" fill="#FFFFFF"></circle></svg>
<text x="662.4" y="259.5" font-family="Poppins, Montserrat, sans-serif" font-weight="700" font-size="132" letter-spacing="-2.6" fill="#FFFFFF">DigiLift AI</text>
<text x="662.4" y="340.2" font-family="Poppins, Montserrat, sans-serif" font-weight="500" font-size="22" letter-spacing="9.2" fill="#A8A8A4">PEOPLE · TECHNOLOGY · POSSIBILITIES</text>
</svg>